int odeToJoy[] = {
  NOTE_E4, NOTE_E4, NOTE_F4, NOTE_G4,
  NOTE_G4, NOTE_F4, NOTE_E4, NOTE_D4,
  NOTE_C4, NOTE_C4, NOTE_D4, NOTE_E4,
  NOTE_E4, NOTE_D4, NOTE_D4,
  NOTE_E4, NOTE_E4, NOTE_F4, NOTE_G4,
  NOTE_G4, NOTE_F4, NOTE_E4, NOTE_D4,
  NOTE_C4, NOTE_C4, NOTE_D4, NOTE_E4,
  NOTE_D4, NOTE_C4, NOTE_C4,
  NOTE_D4, NOTE_D4, NOTE_E4, NOTE_C4,
  NOTE_D4, NOTE_E4, NOTE_F4, NOTE_E4, NOTE_C4,
  NOTE_D4, NOTE_E4, NOTE_F4, NOTE_E4, NOTE_D4,
  NOTE_C4, NOTE_D4, 0 , 0
};

float odeToJoyDurations[] = {
  2, 2, 2, 2,
  2, 2, 2, 2,
  2, 2, 2, 2,
  1.33, 4, 1,
  2, 2, 2, 2,
  2, 2, 2, 2,
  2, 2, 2, 2,
  1.33, 4, 1,
  2, 2, 2, 2,
  2, 4, 4, 2, 2,
  2, 4, 4, 2, 2,
  2, 2, 2, 2
};

int melody[] = {
  NOTE_C4, NOTE_G3, NOTE_G3, NOTE_A3, NOTE_G3, 0, NOTE_B3, NOTE_C4
};

int noteDurations[] = {
  4, 8, 8, 4, 4, 4, 4, 4
};

int jingleBells[] {
  NOTE_E5, NOTE_E5, NOTE_E5,
  NOTE_E5, NOTE_E5, NOTE_E5,
  NOTE_E5, NOTE_G5, NOTE_C5, NOTE_D5,
  NOTE_E5,
  NOTE_F5, NOTE_F5, NOTE_F5, NOTE_F5,
  NOTE_E5, NOTE_E5, NOTE_E5, NOTE_E5, NOTE_E5,
  NOTE_E5, NOTE_D5, NOTE_D5, NOTE_E5,
  NOTE_D5, NOTE_G5
};

int jingleBellsDurations[] = {
  4, 4, 2,
  4, 4, 2,
  4, 4, 3, 8,
  1,
  4, 4, 4, 4,
  4, 4, 4, 8, 8,
  4, 4, 4, 4,
  2, 2
};
